<svg id="Capa_1" data-name="Capa 1" xmlns="http://www.w3.org/2000/svg" viewBox="0 0 403.56 337.35"><defs><style>.cls-1{fill:#b4b4b4;}.cls-2{fill:#8e8e8d;}.cls-3{fill:#a8a8a7;}.cls-4{fill:#9d9d9c;}.cls-5{fill:#be1622;}.cls-6{fill:#a4a3a3;}.cls-7{fill:#8c8c8b;}.cls-8{fill:#818080;}.cls-9{fill:#9e151a;}.cls-10{fill:#dd3c50;}.cls-11{fill:#b7b6b6;}.cls-12{fill:#c4c4c4;}.cls-13{fill:#949494;}.cls-14{fill:#a6a6a5;}.cls-15{fill:#999998;}.cls-16{fill:#f9b233;}.cls-17{fill:#f6a033;}.cls-18{fill:#c6c6c6;}.cls-19{fill:#aeaeae;}.cls-20{fill:#3c3c3b;}.cls-21{fill:#373636;}.cls-22{fill:#dadada;}.cls-23{fill:#f3cd2f;}.cls-24{fill:#dbaa2d;}.cls-25{fill:#b2b2b2;}.cls-26{fill:#931417;}.cls-27{fill:#cd2837;}.cls-28{fill:#f9c5ac;}.cls-29{fill:#d2a893;}.cls-30{fill:#432918;}.cls-31{fill:#1d1d1b;}.cls-32{fill:#ed6f30;}.cls-33{fill:#ffde00;}.cls-34{fill:#c99e00;}.cls-35{fill:#eab500;}.cls-36{fill:#fecc3a;}.cls-37{fill:#fdc300;}.cls-38,.cls-41{fill:#fff;}.cls-38,.cls-40{opacity:0.5;}.cls-39{fill:#fab200;}</style></defs><title>52409 [Converted]</title><path class="cls-1" d="M22.46,196.32s.15,4.61-11.75,16.87l11.12,9.51s4.43-10.2,13.55-7.58Z" transform="translate(-5.78 -34.74)"/><path class="cls-2" d="M68,175.48C49.5,165.17,37.8,178,37.8,178L23.13,195.13c-7.76,12.61,8.55,18,8.55,18l6.93,3.79c7.33,4.61,10.92-.56,10.92-.56L60,204.11c2.83-3.63-1.37-8.05-1.37-8.05l-6.36-7.35s-3.15-3.94.42-7.07A38.6,38.6,0,0,1,68,175.48Z" transform="translate(-5.78 -34.74)"/><rect class="cls-3" x="56.88" y="206.19" width="10.02" height="22.05" transform="translate(-149.21 88.36) rotate(-49.47)"/><path class="cls-4" d="M26.69,208.26l0,.05c0,.05,0,.1,0,.15a30.28,30.28,0,0,1-7.18,12.19l2.4,2s4.43-10.2,13.55-7.58L29.08,206C28.3,206.75,27.5,207.52,26.69,208.26Z" transform="translate(-5.78 -34.74)"/><path class="cls-4" d="M14.82,209.46a22.28,22.28,0,0,0,6.86-4.73c1.33-1.23,2.65-2.51,3.91-3.85l-3.13-4.56s.12,3.76-8.63,13.53Z" transform="translate(-5.78 -34.74)"/><path class="cls-5" d="M149.3,280.21a4.77,4.77,0,0,1,.53,6.73l-5.49,6.41a4.77,4.77,0,0,1-6.72.53c-6.54-10.42-46.08-39.4-46.08-39.4-9-4.92-25.18-21.54-25.18-21.54a4.77,4.77,0,0,1-.53-6.73l5.49-6.41a4.76,4.76,0,0,1,6.72-.53s15.86,10.42,25.09,21.45C103.13,240.72,135.63,273.18,149.3,280.21Z" transform="translate(-5.78 -34.74)"/><path class="cls-6" d="M52.78,206.44a13.49,13.49,0,0,1-2.56,4.3c-3.61,3.53-8.6.85-12.14-1.36s-7.71-2.48-10.18-6.08c-3.46-5-.32-10.87,3.11-14.94a63.35,63.35,0,0,1,6-6.07l1.84-1.64a2.89,2.89,0,0,1,.71-1.42,6.47,6.47,0,0,0,1.68-4A19,19,0,0,0,37.8,178L23.13,195.13c-7.76,12.61,8.55,18,8.55,18l6.93,3.79c7.33,4.61,10.92-.56,10.92-.56L60,204.11c2.83-3.63-1.37-8.05-1.37-8.05l-1-1.15c-.54,1.53-1.09,3.06-1.69,4.57C55,201.86,53.83,204.11,52.78,206.44Z" transform="translate(-5.78 -34.74)"/><path class="cls-7" d="M8.85,212.71,6,216.09a1.51,1.51,0,0,0-.18.26l13.84,11.83a1.19,1.19,0,0,0,.23-.22l2.89-3.38a1.59,1.59,0,0,0-.17-2.24L11.1,212.53A1.6,1.6,0,0,0,8.85,212.71Z" transform="translate(-5.78 -34.74)"/><path class="cls-6" d="M8.87,213.55l-.62.72a1.49,1.49,0,0,1,2.1-.16l10.77,9.21a1.49,1.49,0,0,1,.17,2.1l.62-.72a1.5,1.5,0,0,0-.16-2.11L11,213.38A1.49,1.49,0,0,0,8.87,213.55Z" transform="translate(-5.78 -34.74)"/><path class="cls-8" d="M13.53,221.29c3.81,3.26,6.55,6.32,6.11,6.83s-3.89-1.71-7.7-5-6.54-6.32-6.1-6.83S9.72,218,13.53,221.29Z" transform="translate(-5.78 -34.74)"/><path class="cls-9" d="M78,219.27a4.76,4.76,0,0,0-6.72.53L70,221.39c7.17,4.74,14.65,9.22,20.59,15.48,6.69,7,12.08,15.41,19.9,21.33,6.23,4.72,31.72,25.39,38,30.37l1.4-1.63a4.77,4.77,0,0,0-.53-6.73c-13.67-7-46.17-39.49-46.17-39.49C93.9,229.69,78,219.27,78,219.27Z" transform="translate(-5.78 -34.74)"/><path class="cls-10" d="M69.48,223.71a6.26,6.26,0,0,0-1.75,4.22,5.92,5.92,0,0,0,1.9,4c.26.27.55.53.85.8l.87.82,1.77,1.61,3.56,3.19q1.78,1.57,3.61,3.11c1.21,1,2.43,2.05,3.66,3s2.5,2,3.76,2.88A44.82,44.82,0,0,0,91.62,250c2.78,1.62,5.49,3.33,8.16,5.11,1.34.9,2.66,1.8,4,2.74s2.59,1.92,3.85,2.92S129,278.85,130.14,280a31.92,31.92,0,0,1,3.37,3.59l1.37,2c.45.65.91,1.29,1.38,1.93,1,1.27,1.91,2.54,3,3.7l0,0,0,0a1.51,1.51,0,0,0,.27.33,2.39,2.39,0,0,0,.35.28,2,2,0,0,0,.86.3,1.83,1.83,0,0,0,.47,0,2.67,2.67,0,0,0,.48-.08,3.68,3.68,0,0,0,.47-.15,4.84,4.84,0,0,0,.47-.21c.15-.08.3-.16.45-.26s.29-.18.43-.29a10.29,10.29,0,0,0,.82-.66c.27-.23.53-.48.77-.73s.49-.52.74-.79c-.21.3-.41.59-.64.87s-.45.56-.69.83-.5.53-.77.76-.28.24-.43.35a4.6,4.6,0,0,1-.45.32,4.76,4.76,0,0,1-.49.28,4.06,4.06,0,0,1-.52.22,5.29,5.29,0,0,1-.57.15,2.88,2.88,0,0,1-.59,0,2.7,2.7,0,0,1-1.18-.32,2.83,2.83,0,0,1-.51-.34,2.9,2.9,0,0,1-.45-.47l.06.07a38.11,38.11,0,0,1-3.31-3.54c-.52-.62-1-1.24-1.53-1.87l-.75-.95-.7-.92a30.25,30.25,0,0,0-3.35-3.24c-1.2-1-21.27-18.09-22.54-19s-2.56-1.86-3.87-2.76-2.62-1.78-4-2.65-2.66-1.72-4-2.56-2.69-1.69-4.06-2.5a43.54,43.54,0,0,1-4-2.74c-1.3-1-2.54-2-3.77-3s-2.44-2.1-3.62-3.19-2.34-2.19-3.49-3.31-2.28-2.25-3.4-3.4l-1.66-1.73c-.56-.59-1.1-1.15-1.64-1.79a8.19,8.19,0,0,1-1.32-2.15,5.68,5.68,0,0,1-.35-1.22,5.41,5.41,0,0,1-.06-1.27A6.25,6.25,0,0,1,69.48,223.71Z" transform="translate(-5.78 -34.74)"/><path class="cls-8" d="M26,210.06c.45.34.91.65,1.36.93Z" transform="translate(-5.78 -34.74)"/><path class="cls-8" d="M37.8,178l-4.18,4.88c2.28-1.43,4.89-2.77,7.45-2.26a6,6,0,0,1,4.58,3.83c.56,1.8.24,3.47.36,5.3.24,3.92,2.84,6.38,5,9.48s3.84,7,3.09,11q-.11.54-.24,1.08L60,204.11c2.83-3.63-1.37-8.05-1.37-8.05l-6.36-7.35s-3.15-3.94.42-7.07A38.6,38.6,0,0,1,68,175.48C49.5,165.17,37.8,178,37.8,178Z" transform="translate(-5.78 -34.74)"/><path class="cls-11" d="M125.51,179.69c-8.33-11.15-8.58-20.1-8.58-20.1L106.67,168,96.4,176.31s8.72,2.05,17.95,12.47l25.77,31.64s8.09,10.19,8,19.41l10.27-8.35,10.26-8.36c-9-1.79-17.38-11.78-17.38-11.78Z" transform="translate(-5.78 -34.74)"/><path class="cls-6" d="M107.38,155.39c1.72-2.92-1.3-5-1.3-5L91.92,136.7c-2.3-3.12,1.72-3.27,1.72-3.27,19.71,5.15,23.34,14.24,23.34,14.24,6,13.05-7.68,23.52-7.68,23.52-14.81,11.25-24.58,2.75-24.58,2.75s-8.16-5.4-9.22-25.74c0,0,1-3.91,3.56-1l10.51,16.63s1.56,3.35,4.65,2.29C94.22,166.1,103.19,163.68,107.38,155.39Z" transform="translate(-5.78 -34.74)"/><path class="cls-12" d="M77.87,146.93l11.46,18.12s1.7,3.65,5.07,2.5c0,0,9.77-2.64,14.34-11.67,1.87-3.19-1.42-5.48-1.42-5.48L91.89,135.51a4.82,4.82,0,0,1-.63-1.11c-.25.48-.18,1.19.58,2.23L106,150.29s3,2.1,1.3,5C103.11,163.6,94.14,166,94.14,166c-3.09,1.05-4.65-2.29-4.65-2.29L79,147.1c-.86-.95-1.54-1.16-2.07-1A4.31,4.31,0,0,1,77.87,146.93Z" transform="translate(-5.78 -34.74)"/><path class="cls-13" d="M93.64,133.43s-2.34.09-2.42,1.52a3.61,3.61,0,0,1,1.53-.42c17.38,4.54,20.59,12.56,20.59,12.56,5.29,11.5-6.77,20.74-6.77,20.74-13.07,9.92-21.68,2.43-21.68,2.43s-7.2-4.77-8.13-22.71a3.61,3.61,0,0,1,.72-1.42c-1.42-.21-2,2.06-2,2.06,1.06,20.35,9.22,25.75,9.22,25.75s9.77,8.5,24.58-2.75c0,0,13.67-10.47,7.68-23.52C117,147.67,113.35,138.58,93.64,133.43Z" transform="translate(-5.78 -34.74)"/><path class="cls-6" d="M158.22,244.7c-1.72,2.92,1.3,5,1.3,5l14.16,13.66c2.3,3.13-1.72,3.28-1.72,3.28-19.71-5.16-23.34-14.25-23.34-14.25-6-13,7.68-23.51,7.68-23.51,14.81-11.25,24.58-2.76,24.58-2.76s8.17,5.4,9.22,25.75c0,0-1,3.9-3.55,1L176,236.27s-1.56-3.34-4.66-2.29C171.38,234,162.41,236.41,158.22,244.7Z" transform="translate(-5.78 -34.74)"/><path class="cls-12" d="M187.73,253.16,176.28,235s-1.7-3.65-5.08-2.5c0,0-9.77,2.64-14.34,11.68-1.87,3.18,1.42,5.47,1.42,5.47l15.43,14.9a4.43,4.43,0,0,1,.63,1.1c.25-.48.18-1.19-.58-2.22L159.6,249.79s-3-2.1-1.3-5c4.19-8.29,13.16-10.71,13.16-10.71,3.1-1.06,4.66,2.29,4.66,2.29L186.63,253c.86,1,1.54,1.17,2.06,1A5.21,5.21,0,0,1,187.73,253.16Z" transform="translate(-5.78 -34.74)"/><path class="cls-13" d="M172,266.66s2.33-.09,2.42-1.52a3.63,3.63,0,0,1-1.54.42C155.47,261,152.26,253,152.26,253,147,241.49,159,232.26,159,232.26c13.06-9.92,21.67-2.43,21.67-2.43s7.21,4.76,8.13,22.71a3.6,3.6,0,0,1-.72,1.41c1.42.21,2-2.06,2-2.06-1-20.34-9.22-25.75-9.22-25.75s-9.77-8.49-24.58,2.76c0,0-13.67,10.47-7.68,23.51C148.62,252.41,152.26,261.5,172,266.66Z" transform="translate(-5.78 -34.74)"/><path class="cls-14" d="M154.09,219.46a4.25,4.25,0,0,1-.61,6h0a4.24,4.24,0,0,1-6-.61l-35.39-43.46a4.25,4.25,0,0,1,.61-6h0a4.25,4.25,0,0,1,6,.61Z" transform="translate(-5.78 -34.74)"/><path class="cls-15" d="M152.77,219.22c1.43,1.75,1.41,4.12,0,5.3h0c-1.45,1.18-3.78.72-5.21-1l-34.1-41.88c-1.42-1.75-1.41-4.12,0-5.3h0c1.45-1.18,3.78-.72,5.21,1Z" transform="translate(-5.78 -34.74)"/><path class="cls-16" d="M307.24,169.3c5.46-1,7.28-6.39,7.28-6.39l18.41-39.67a5.06,5.06,0,0,0-2.46-6.73l-11.06-5.13a5.06,5.06,0,0,0-6.73,2.46l-18.41,39.67s-3,4.9-.18,9.68c0,0,3.29,3.57-4.28,8l7.05,3.27,7.05,3.27C302.39,169.08,307.24,169.3,307.24,169.3Z" transform="translate(-5.78 -34.74)"/><path class="cls-17" d="M294.09,163.19s3.29,3.57-4.28,8l2.85,1.32q1.54-.85,3-1.8c6.09-4,6.81-12.24,8.79-18.72a99.82,99.82,0,0,1,9.93-21.75c3.45-5.76,7.36-11.29,12.79-15.27l-7.73-3.58a5.06,5.06,0,0,0-6.73,2.46l-18.41,39.67S291.3,158.41,294.09,163.19Z" transform="translate(-5.78 -34.74)"/><rect class="cls-18" x="244.22" y="208.18" width="71.37" height="5.61" transform="translate(-35.09 341.32) rotate(-65.1)"/><rect class="cls-19" x="243.01" y="208.95" width="71.37" height="2.94" transform="translate(-35.31 339.84) rotate(-65.09)"/><path class="cls-20" d="M304.53,182a1.4,1.4,0,0,1-1.86.68l-15.83-7.35a1.39,1.39,0,0,1-.68-1.86l1-2.07a1.39,1.39,0,0,1,1.86-.68L304.81,178a1.39,1.39,0,0,1,.68,1.86Z" transform="translate(-5.78 -34.74)"/><path class="cls-21" d="M287.26,174.65a.36.36,0,0,1-.49.18h0a.37.37,0,0,1-.18-.48l1.5-3.22a.35.35,0,0,1,.48-.17h0a.35.35,0,0,1,.18.48Z" transform="translate(-5.78 -34.74)"/><path class="cls-21" d="M288.22,175.1a.38.38,0,0,1-.49.18h0a.38.38,0,0,1-.18-.49l1.49-3.21a.38.38,0,0,1,.49-.18h0a.38.38,0,0,1,.18.49Z" transform="translate(-5.78 -34.74)"/><path class="cls-21" d="M289.18,175.54a.36.36,0,0,1-.49.18h0a.37.37,0,0,1-.18-.48L290,172a.37.37,0,0,1,.49-.17h0a.37.37,0,0,1,.18.48Z" transform="translate(-5.78 -34.74)"/><path class="cls-21" d="M290.14,176a.38.38,0,0,1-.49.18h0a.38.38,0,0,1-.18-.49l1.49-3.21a.38.38,0,0,1,.49-.18h0a.38.38,0,0,1,.18.49Z" transform="translate(-5.78 -34.74)"/><path class="cls-21" d="M291.1,176.43a.36.36,0,0,1-.49.18h0a.37.37,0,0,1-.18-.48l1.49-3.22a.37.37,0,0,1,.49-.17h0a.37.37,0,0,1,.18.48Z" transform="translate(-5.78 -34.74)"/><path class="cls-21" d="M292.06,176.88a.38.38,0,0,1-.49.18h0a.37.37,0,0,1-.18-.49l1.49-3.21a.38.38,0,0,1,.49-.18h0a.38.38,0,0,1,.18.49Z" transform="translate(-5.78 -34.74)"/><path class="cls-21" d="M293,177.33a.37.37,0,0,1-.49.17h0a.35.35,0,0,1-.18-.48l1.49-3.22a.36.36,0,0,1,.49-.17h0a.37.37,0,0,1,.18.48Z" transform="translate(-5.78 -34.74)"/><path class="cls-21" d="M294,177.77a.37.37,0,0,1-.48.18h0a.36.36,0,0,1-.18-.49l1.49-3.21a.37.37,0,0,1,.49-.18h0a.37.37,0,0,1,.17.49Z" transform="translate(-5.78 -34.74)"/><path class="cls-21" d="M294.93,178.21a.35.35,0,0,1-.48.18h0a.35.35,0,0,1-.18-.48l1.49-3.22a.36.36,0,0,1,.49-.17h0a.35.35,0,0,1,.17.48Z" transform="translate(-5.78 -34.74)"/><path class="cls-21" d="M295.89,178.66a.37.37,0,0,1-.48.18h0a.36.36,0,0,1-.18-.49l1.49-3.21a.37.37,0,0,1,.48-.18h0a.36.36,0,0,1,.18.49Z" transform="translate(-5.78 -34.74)"/><path class="cls-21" d="M296.85,179.11a.37.37,0,0,1-.48.18h0a.36.36,0,0,1-.18-.49l1.49-3.22a.35.35,0,0,1,.48-.17h0a.35.35,0,0,1,.18.48Z" transform="translate(-5.78 -34.74)"/><path class="cls-21" d="M297.81,179.55a.37.37,0,0,1-.49.18h0a.37.37,0,0,1-.17-.49l1.49-3.21a.37.37,0,0,1,.48-.18h0a.36.36,0,0,1,.18.49Z" transform="translate(-5.78 -34.74)"/><path class="cls-21" d="M298.77,180a.36.36,0,0,1-.49.17h0a.35.35,0,0,1-.17-.48l1.49-3.22a.35.35,0,0,1,.48-.17h0a.35.35,0,0,1,.18.48Z" transform="translate(-5.78 -34.74)"/><path class="cls-21" d="M299.73,180.44a.36.36,0,0,1-.49.18h0a.38.38,0,0,1-.18-.49l1.49-3.21a.38.38,0,0,1,.49-.18h0a.37.37,0,0,1,.18.49Z" transform="translate(-5.78 -34.74)"/><path class="cls-21" d="M300.69,180.88a.36.36,0,0,1-.49.18h0a.37.37,0,0,1-.18-.48l1.49-3.21a.36.36,0,0,1,.49-.18h0a.37.37,0,0,1,.18.48Z" transform="translate(-5.78 -34.74)"/><path class="cls-21" d="M301.65,181.33a.37.37,0,0,1-.49.18h0A.38.38,0,0,1,301,181l1.49-3.21a.38.38,0,0,1,.49-.18h0a.38.38,0,0,1,.18.49Z" transform="translate(-5.78 -34.74)"/><path class="cls-21" d="M302.61,181.78a.38.38,0,0,1-.49.18h0a.38.38,0,0,1-.18-.49l1.49-3.21a.36.36,0,0,1,.49-.18h0a.37.37,0,0,1,.18.48Z" transform="translate(-5.78 -34.74)"/><path class="cls-21" d="M303.57,182.22a.37.37,0,0,1-.49.18h0a.38.38,0,0,1-.18-.49l1.49-3.21a.38.38,0,0,1,.49-.18h0a.38.38,0,0,1,.18.49Z" transform="translate(-5.78 -34.74)"/><path class="cls-19" d="M262.34,255.32a1.18,1.18,0,0,1-1.58.58L258,254.61a1.19,1.19,0,0,1-.58-1.58l3.44-10.25a1.2,1.2,0,0,1,1.58-.58l4.95,2.3a1.2,1.2,0,0,1,.58,1.59Z" transform="translate(-5.78 -34.74)"/><path class="cls-6" d="M262.22,245.52a1.2,1.2,0,0,1,1.58-.58l3.77,1.75.37-.6a1.2,1.2,0,0,0-.58-1.59l-4.95-2.3a1.2,1.2,0,0,0-1.58.58L257.39,253a1.19,1.19,0,0,0,.58,1.58l1,.48Z" transform="translate(-5.78 -34.74)"/><path class="cls-22" d="M264.79,245.94c.68.27,1.36.55,2,.84l.1,0-.06.1c-.4.69-.79,1.38-1.2,2.07s-.82,1.37-1.24,2-.83,1.36-1.26,2-.87,1.34-1.31,2h0a1,1,0,0,1-.43.26l-.12,0-.12,0h-.24a.93.93,0,0,1-.23,0l-.23-.06-.41-.2.43.15.22,0a.6.6,0,0,0,.23,0,1.8,1.8,0,0,0,.22,0l.1,0a.38.38,0,0,0,.1,0,.86.86,0,0,0,.19-.11.58.58,0,0,0,.14-.13h0c.4-.7.79-1.39,1.2-2.08s.82-1.37,1.23-2.06l1.26-2c.43-.68.87-1.35,1.3-2l.05.14C266.08,246.63,265.44,246.29,264.79,245.94Z" transform="translate(-5.78 -34.74)"/><path class="cls-23" d="M300.72,158.6a1.54,1.54,0,0,1-2,.85l-1.13-.52a1.54,1.54,0,0,1-.64-2.08l19.28-41.55a1.53,1.53,0,0,1,2-.84l1.13.52a1.54,1.54,0,0,1,.64,2.08Z" transform="translate(-5.78 -34.74)"/><path class="cls-24" d="M298.32,157.49l19.28-41.55a1.54,1.54,0,0,1,1.87-.89l-.11-.07-1.13-.52a1.53,1.53,0,0,0-2,.84L297,156.85a1.54,1.54,0,0,0,.64,2.08l1.13.52.13.05A1.55,1.55,0,0,1,298.32,157.49Z" transform="translate(-5.78 -34.74)"/><path class="cls-23" d="M305.48,160.81a1.54,1.54,0,0,1-2,.85l-1.12-.52a1.54,1.54,0,0,1-.64-2.08L321,117.51a1.54,1.54,0,0,1,2-.85l1.12.52a1.54,1.54,0,0,1,.65,2.08Z" transform="translate(-5.78 -34.74)"/><path class="cls-24" d="M303,159.67l19.28-41.54a1.57,1.57,0,0,1,1.88-.9l-.12-.07-1.12-.52a1.55,1.55,0,0,0-2,.85L301.66,159a1.55,1.55,0,0,0,.65,2.08l1.12.52.13,0A1.56,1.56,0,0,1,303,159.67Z" transform="translate(-5.78 -34.74)"/><path class="cls-23" d="M310.24,163a1.54,1.54,0,0,1-2,.85l-1.12-.52a1.54,1.54,0,0,1-.64-2.08l19.28-41.55a1.54,1.54,0,0,1,2-.85l1.12.52a1.54,1.54,0,0,1,.65,2.08Z" transform="translate(-5.78 -34.74)"/><path class="cls-24" d="M307.84,161.9l19.27-41.54a1.56,1.56,0,0,1,1.88-.9l-.12-.07-1.12-.52a1.54,1.54,0,0,0-2,.85l-19.28,41.55a1.54,1.54,0,0,0,.64,2.08l1.12.52.13,0A1.55,1.55,0,0,1,307.84,161.9Z" transform="translate(-5.78 -34.74)"/><path class="cls-18" d="M370.05,177c2.8-7.07,17.66-21.29,35.82-19.57l1.21,1.24-17,16.59-1-1s-7.19,4.84-10,12l-14.32,14.06L363.5,199l-4.11,4.26-6.54-6.65S362.13,197.43,370.05,177Z" transform="translate(-5.78 -34.74)"/><path class="cls-18" d="M388.61,195.94c7.12-2.67,22-16.83,20.64-35l-1.63-1.66-16.91,16.66,1,1s-5,7.1-12.15,9.8l-14.32,14.06,1.29,1.32-4.33,4,6.53,6.65S368.07,203.49,388.61,195.94Z" transform="translate(-5.78 -34.74)"/><path class="cls-4" d="M377.79,198.44c-3.24,3.18-8.11,3.48-10.87.67s-2.37-7.68.87-10.86,8.11-3.48,10.87-.67S381,195.25,377.79,198.44Z" transform="translate(-5.78 -34.74)"/><path class="cls-25" d="M376.31,196.93c-2.28,2.24-5.71,2.45-7.65.47s-1.68-5.4.61-7.64,5.71-2.45,7.65-.47S378.59,194.69,376.31,196.93Z" transform="translate(-5.78 -34.74)"/><path class="cls-5" d="M359.39,203.27c.17.41-2.17,3.23-2.46,3.63a29.93,29.93,0,0,1-7.06,7.4c-3.13,2.15-6.51,2.64-10.2,3-1.07.11-2.15.19-3.22.34a49.82,49.82,0,0,0-9.22,2.4,54.67,54.67,0,0,0-12.17,6.18,67.89,67.89,0,0,0-13.55,11.94c-5.15,5.91-9,12.66-12.48,19.65-.47.95-1,1.89-1.41,2.85a7.93,7.93,0,0,0,0,1.19,5.51,5.51,0,0,1-.85,2.17c-1.82,2.76-5.33,2.88-8.28,2.35-3.65-.66-9.72-1.46-11.43-5.38a5.75,5.75,0,0,1,0-3.88c.76-2,2.89-3.26,4.81-3.85.87-.26,1.76-.48,2.64-.74.15-.05,1.42-.29,1.48-.45,0,0,13.73-34.2,54.63-45.07,0,0,10.2-.37,15.55-16.65C346.21,190.35,350.55,182.29,359.39,203.27Z" transform="translate(-5.78 -34.74)"/><path class="cls-26" d="M356.93,206.9c.29-.4,2.63-3.22,2.46-3.63-8.84-21-13.18-12.92-13.18-12.92s-.06.18-.1.27c3.12,3.24,6.42,7.28,6,12a9.27,9.27,0,0,1-4.38,7.05c-2.58,1.55-5.57,2-8.51,2.28a66.52,66.52,0,0,0-8,1.43c-8.12,2-15.77,6.34-22.71,11-3.9,2.63-7,6.45-9.92,10.12A100.82,100.82,0,0,0,291,246.08c-2.38,4-4.93,8.29-8.38,11.45a34.08,34.08,0,0,1-7.89,5c-1.25.62-2.57,1.24-3.8,2a33.74,33.74,0,0,0,7.54,1.9c2.95.53,6.46.41,8.28-2.35a5.51,5.51,0,0,0,.85-2.17,7.93,7.93,0,0,1,0-1.19c.43-1,.94-1.9,1.41-2.85,3.47-7,7.33-13.74,12.48-19.65a67.89,67.89,0,0,1,13.55-11.94A54.67,54.67,0,0,1,327.23,220a49.82,49.82,0,0,1,9.22-2.4c1.07-.15,2.15-.23,3.22-.34,3.69-.36,7.07-.85,10.2-3A29.93,29.93,0,0,0,356.93,206.9Z" transform="translate(-5.78 -34.74)"/><path class="cls-27" d="M271.66,264.14a5.7,5.7,0,0,1-1.62-1.32,4.24,4.24,0,0,1-.59-.9,2.85,2.85,0,0,1-.2-.51,3.25,3.25,0,0,1-.12-.54,3.44,3.44,0,0,1,0-.56,3.68,3.68,0,0,1,.06-.56,3.53,3.53,0,0,1,.13-.54,4.65,4.65,0,0,1,.2-.52c.08-.17.17-.33.26-.49s.19-.31.29-.47l.33-.44.35-.41h0l0,0,.4-.33.41-.31c.28-.19.56-.37.85-.54a11.94,11.94,0,0,1,1.85-.85,9.55,9.55,0,0,1,2-.47,7.17,7.17,0,0,1,1-.08c.35,0,.7,0,1,.06l-.84.55c.07-.26.14-.45.21-.67s.14-.41.23-.61c.15-.4.32-.8.49-1.19s.36-.77.55-1.15.38-.76.58-1.13.4-.75.61-1.11.41-.74.63-1.1l.66-1.07.68-1.06c.45-.72.93-1.4,1.39-2.1l1.45-2.06c.5-.67,1-1.35,1.5-2l1.54-2-.09.13c.25-.4.48-.72.72-1.07s.49-.68.74-1q.75-1,1.53-2c1.05-1.27,2.15-2.51,3.3-3.68s2.33-2.33,3.55-3.42,2.49-2.16,3.79-3.17,2.63-2,4-2.9,2.75-1.8,4.17-2.62,2.87-1.61,4.34-2.34,3-1.4,4.49-2,3.05-1.21,4.6-1.74,3.12-1,4.7-1.43,3.17-.79,4.77-1.12c.81-.17,1.61-.31,2.42-.44s1.53-.29,2.29-.48a27.31,27.31,0,0,0,4.43-1.54,14.85,14.85,0,0,0,3.93-2.48,9.63,9.63,0,0,0,1.51-1.74,7.25,7.25,0,0,0,.95-2.1,8.29,8.29,0,0,0,.27-2.34,11.45,11.45,0,0,0-.37-2.37,8.82,8.82,0,0,1,.64,4.83A8.61,8.61,0,0,1,346.4,205a16.13,16.13,0,0,1-4,3,27.48,27.48,0,0,1-4.58,1.94c-.79.25-1.59.48-2.41.67s-1.55.37-2.32.57c-1.55.39-3.08.83-4.6,1.32s-3,1-4.49,1.58-3,1.17-4.4,1.82-2.88,1.35-4.28,2.09-2.79,1.51-4.14,2.33-2.7,1.66-4,2.56-2.58,1.84-3.84,2.8-2.47,2-3.66,3-2.34,2.12-3.46,3.24-2.2,2.27-3.24,3.45c-.52.6-1,1.2-1.52,1.82l-.72.92c-.22.31-.47.64-.66.92l-.05.09,0,0-1.58,1.9-1.55,1.92L285.35,245c-.48.66-1,1.31-1.46,2l-.71,1-.69,1c-.23.34-.45.69-.67,1s-.45.68-.66,1-.42.69-.63,1-.39.71-.59,1.06-.37.71-.54,1.07c-.09.18-.16.36-.24.54l-.2.51-.23.65-.6-.1a9.41,9.41,0,0,0-1.76-.11,8.84,8.84,0,0,0-1.76.28,9.77,9.77,0,0,0-1.71.63,7.82,7.82,0,0,0-.81.43l-.39.24-.36.25,0,0-.36.34-.33.36c-.09.13-.21.25-.3.39s-.18.26-.26.4-.15.28-.22.43a3.29,3.29,0,0,0-.16.44,2.6,2.6,0,0,0-.09.47,2.52,2.52,0,0,0,0,.95,2.52,2.52,0,0,0,.13.47,3.58,3.58,0,0,0,.44.9A6,6,0,0,0,271.66,264.14Z" transform="translate(-5.78 -34.74)"/><path class="cls-5" d="M362,205.46c-.41-.18-3.27,2.11-3.68,2.39a29.56,29.56,0,0,0-7.52,6.93c-2.22,3.09-2.76,6.46-3.19,10.14-.13,1.07-.23,2.15-.4,3.21a50.46,50.46,0,0,1-2.57,9.18,54.62,54.62,0,0,1-6.4,12.05,68.29,68.29,0,0,1-12.19,13.33c-6,5-12.82,8.78-19.87,12.12-1,.46-1.91.94-2.88,1.36a8.11,8.11,0,0,1-1.19,0A5.5,5.5,0,0,0,300,277c-2.79,1.77-3,5.28-2.5,8.23.59,3.66,1.28,9.75,5.16,11.53a5.71,5.71,0,0,0,3.89,0c2-.71,3.31-2.82,3.93-4.73.28-.87.52-1.75.8-2.62a5.7,5.7,0,0,1,.47-1.48s34.44-13.1,46.07-53.79c0,0,.54-10.2,16.93-15.24C374.71,218.88,382.84,214.68,362,205.46Z" transform="translate(-5.78 -34.74)"/><path class="cls-26" d="M358.35,207.85c.41-.28,3.27-2.57,3.68-2.39,20.81,9.22,12.68,13.42,12.68,13.42a1.31,1.31,0,0,0-.28.09c-3.18-3.18-7.16-6.56-11.91-6.2a9.3,9.3,0,0,0-7.13,4.25c-1.6,2.56-2.07,5.53-2.44,8.47a66.12,66.12,0,0,1-1.57,8c-2.12,8.09-6.62,15.65-11.44,22.51-2.71,3.84-6.58,6.85-10.31,9.73A100.1,100.1,0,0,1,318,273c-4,2.32-8.39,4.79-11.6,8.18a33.49,33.49,0,0,0-5.12,7.8c-.65,1.24-1.29,2.54-2,3.76a33,33,0,0,1-1.76-7.58c-.48-2.95-.29-6.46,2.5-8.23a5.5,5.5,0,0,1,2.18-.82,8.11,8.11,0,0,0,1.19,0c1-.42,1.92-.9,2.88-1.36,7.05-3.34,13.87-7.08,19.87-12.12a68.29,68.29,0,0,0,12.19-13.33,54.62,54.62,0,0,0,6.4-12.05,50.46,50.46,0,0,0,2.57-9.18c.17-1.06.27-2.14.4-3.21.43-3.68,1-7,3.19-10.14A29.56,29.56,0,0,1,358.35,207.85Z" transform="translate(-5.78 -34.74)"/><path class="cls-27" d="M299.56,292.06a5.55,5.55,0,0,0,1.29,1.64,4.25,4.25,0,0,0,.89.61,3.11,3.11,0,0,0,.5.21,3.39,3.39,0,0,0,1.1.17,2.59,2.59,0,0,0,.56-.05,3.37,3.37,0,0,0,.55-.12l.52-.19c.17-.07.33-.16.5-.25s.31-.19.47-.28l.44-.32.43-.34h0l0,0,.34-.39c.11-.13.21-.27.31-.41a9.43,9.43,0,0,0,.56-.84,10.54,10.54,0,0,0,.88-1.82,9.64,9.64,0,0,0,.52-2c0-.34.08-.69.09-1a9.21,9.21,0,0,0,0-1.05l-.57.83.68-.19.61-.22c.41-.15.8-.31,1.2-.48l1.16-.52c.39-.18.77-.37,1.14-.56s.76-.38,1.13-.59.74-.39,1.1-.61l1.09-.64,1.07-.66c.73-.43,1.42-.9,2.13-1.35l2.08-1.41c.68-.49,1.37-1,2-1.46l2-1.51-.12.08c.4-.24.73-.46,1.08-.7s.69-.47,1-.71q1-.74,2-1.5c1.29-1,2.54-2.1,3.74-3.23s2.37-2.29,3.49-3.49,2.19-2.45,3.23-3.73,2-2.59,3-3.94,1.85-2.71,2.7-4.12,1.66-2.83,2.42-4.3,1.46-2.94,2.12-4.44,1.26-3,1.83-4.57,1.05-3.1,1.51-4.68.85-3.15,1.21-4.75c.18-.8.33-1.59.48-2.4s.32-1.53.53-2.28a26.14,26.14,0,0,1,1.62-4.41,15.07,15.07,0,0,1,2.55-3.88,9.16,9.16,0,0,1,1.76-1.47,7,7,0,0,1,2.12-.92,8,8,0,0,1,2.34-.22,10.61,10.61,0,0,1,2.36.41,8.75,8.75,0,0,0-4.81-.73,8.6,8.6,0,0,0-4.48,2.21,16.12,16.12,0,0,0-3.08,4,26.39,26.39,0,0,0-2,4.55c-.27.78-.51,1.57-.72,2.39s-.4,1.55-.61,2.31c-.42,1.54-.89,3.06-1.41,4.57s-1.08,3-1.66,4.47-1.22,2.93-1.9,4.37-1.4,2.84-2.17,4.23-1.56,2.76-2.4,4.1-1.72,2.66-2.64,3.95-1.88,2.55-2.87,3.79-2,2.43-3.09,3.6-2.16,2.31-3.3,3.41-2.31,2.16-3.52,3.17c-.6.51-1.21,1-1.84,1.48-.31.24-.62.48-.94.7s-.64.46-.93.65l-.08.05,0,0-1.93,1.53-1.94,1.52-2,1.48c-.67.47-1.33,1-2,1.42l-1,.69-1,.67c-.34.23-.69.43-1,.65s-.69.44-1,.64l-1.06.61c-.35.2-.71.38-1.07.57s-.72.36-1.08.52c-.18.09-.37.16-.55.24l-.51.18-.65.22.08.61a7.85,7.85,0,0,1,.08,1.75,8.43,8.43,0,0,1-.31,1.77,9.24,9.24,0,0,1-.66,1.69,8.94,8.94,0,0,1-.44.8c-.08.13-.16.26-.25.38a3.74,3.74,0,0,1-.26.36l0,0-.34.35-.37.33c-.13.09-.25.2-.39.29l-.41.26c-.14.08-.28.14-.43.21l-.45.15c-.15,0-.31.06-.47.09a3.69,3.69,0,0,1-.47,0,2.65,2.65,0,0,1-.48-.07,2.75,2.75,0,0,1-.47-.13,3.89,3.89,0,0,1-.88-.46A5.83,5.83,0,0,1,299.56,292.06Z" transform="translate(-5.78 -34.74)"/><rect class="cls-28" x="178.93" y="174.33" width="44.84" height="27.1"/><path class="cls-29" d="M218.56,228.61a72.08,72.08,0,0,0,11-5.87V209.07H184.71v16.49C195.42,230.19,207.39,233.24,218.56,228.61Z" transform="translate(-5.78 -34.74)"/><path class="cls-28" d="M262.25,165.4c-1.43,7.34-6,12.63-10.23,11.82s-6.5-7.44-5.08-14.78,6-12.65,10.23-11.83S263.67,158.05,262.25,165.4Z" transform="translate(-5.78 -34.74)"/><path class="cls-28" d="M152.44,167.13c1.4,7.35,6,12.65,10.2,11.85s6.52-7.43,5.12-14.77-6-12.66-10.2-11.85S151,159.78,152.44,167.13Z" transform="translate(-5.78 -34.74)"/><path class="cls-28" d="M253.83,174.18c-.63,9.15-5.69,17.74-10.36,24.55-12.23,17.84-17.13,25.54-35.09,25.54-17.4,0-19.89-4.57-33.33-18.91-6.75-7.19-10.42-16.67-13-25.14l-1-9.36c-.94-8.21-.91-19.89-.91-19.89.28-16.93,1.77-34.25,9.37-44.69,9-12.44,24-15.59,38.19-15.59,12.89,0,27.42,3.22,36.21,14.1,8.55,10.59,10,26.54,10.27,43.64,0,.65,0,1.31,0,2C254.15,150.4,254.14,170.7,253.83,174.18Z" transform="translate(-5.78 -34.74)"/><path class="cls-28" d="M310.41,300l-6.83-33.58c-10.44-14.57-36-22.46-36-22.46l-38.94-13h-43l-37.59,14.24s-24.41,8.33-34.21,25.53L104.9,300Z" transform="translate(-5.78 -34.74)"/><path class="cls-30" d="M175.44,117.45s18.13,12.86,66.08,9.94c0,0,11.7,27.17,8.77,38.28h3.77l4-13.39s5.66-11.64,4.58-34.83c0,0-3.56-20.47-16.16-30.41,0,0,3.56-2.64,8.08,3.65,0,0-3.71-13.79-28.66-15.74a125,125,0,0,1,12.86,0s-16-8.19-30-2.34a12.85,12.85,0,0,1,10.28-5.07s-17.29-.39-27,9c0,0,4.68-6.24,9.75-9.36,0,0-22.62,4.29-26.32,16,0,0,1-8.19,3.7-11.7,0,0-12.27,8-11,21.44C168.17,92.88,161.6,106.14,175.44,117.45Z" transform="translate(-5.78 -34.74)"/><path class="cls-30" d="M164.33,165.67h-3.77L154.68,149s-10.26-21.35-2.65-43.57c0,0,4.11-17,20.78-17.26,0,0-6.2,30.12-9.65,54.39Z" transform="translate(-5.78 -34.74)"/><path class="cls-31" d="M310.41,300l-6.83-33.58c-4.82-12.91-34.59-22-34.59-22l-40.38-13.51-21.48,33.91-21.49-33.91-41.57,15.75s-26.58,8.31-32.82,30.53L104.71,300Z" transform="translate(-5.78 -34.74)"/><path class="cls-32" d="M151.59,300H264a80,80,0,0,1,3.58-56l-23.24-7.77-37.18,63L169.69,237l-21.64,8.2C162.64,267.18,155.07,291.42,151.59,300Z" transform="translate(-5.78 -34.74)"/><path class="cls-33" d="M180.39,300c-6.63-40.93-14.27-60.45-14.65-61.52l-10.58,4c0,2.87,5,20.46,9.4,57.51Z" transform="translate(-5.78 -34.74)"/><path class="cls-33" d="M247.09,300c4.81-40,10.3-59.15,10.39-59.4l-10-3.56c-.39,1.08-8.28,21.22-15.09,63Z" transform="translate(-5.78 -34.74)"/><path class="cls-34" d="M259.74,104.57c-26-6.3-54.84-3.43-54.84-3.43s-28.85-2.87-54.84,3.43c0,0-14.06,1.85-8.06,10a35.43,35.43,0,0,0,21.4,16.38s11.21,4,41.5,4c30.32.18,41.5-4.51,41.5-4.51,16.33-4.15,21-14.81,21-14.81C272.26,106.78,259.74,104.57,259.74,104.57Z" transform="translate(-5.78 -34.74)"/><path class="cls-35" d="M259.74,101.5c-26-6.3-54.84-3.43-54.84-3.43s-28.85-2.87-54.84,3.43c0,0-14.06,1.85-8.06,10a35.43,35.43,0,0,0,21.4,16.38s11.21,4,41.5,4c30.32.18,41.5-4.51,41.5-4.51,16.33-4.16,21-14.81,21-14.81C272.26,103.71,259.74,101.5,259.74,101.5Z" transform="translate(-5.78 -34.74)"/><path class="cls-36" d="M248.65,122.17s-10.72,4.5-39.79,4.33c-29,0-39.79-3.85-39.79-3.85a34,34,0,0,1-20.52-15.71c-1.35-1.84-1.64-3.33-1.29-4.56-2.68,1.42-4.65,3.81-1.76,7.73A34,34,0,0,0,166,125.82s10.76,3.86,39.79,3.85c29.07.17,39.8-4.33,39.8-4.33,9.67-2.46,15.06-7.3,17.77-10.64A34.85,34.85,0,0,1,248.65,122.17Z" transform="translate(-5.78 -34.74)"/><path class="cls-37" d="M261.43,109.08a1.5,1.5,0,0,0,0-.22,1.53,1.53,0,0,0,0-.3c-.85-36.51-25.59-65.8-56-65.8-30.81,0-55.8,30.07-56,67.25h.36c3.05,5.29,26.82,9.4,55.68,9.4s52.63-4.11,55.67-9.4h.34C261.45,109.7,261.44,109.39,261.43,109.08Z" transform="translate(-5.78 -34.74)"/><path class="cls-38" d="M255.54,107.09a1.77,1.77,0,0,0,0-.23C255,83.31,241.09,63.79,222.67,59c15.75,6.87,27.1,24.83,27.59,46.09a.78.78,0,0,1,0,.22,1,1,0,0,1,0,.17c0,.23,0,.46,0,.69H250c-2.27,3.94-20,7-41.52,7-13.89,0-26.19-1.27-33.79-3.23,6,3,21.22,5.06,39.05,5.06,21.53,0,39.25-3.07,41.52-7h.25c0-.24,0-.47,0-.7A.86.86,0,0,0,255.54,107.09Z" transform="translate(-5.78 -34.74)"/><path class="cls-39" d="M221,53.69a47.44,47.44,0,0,1,20,4.43c-9.66-9.59-22-15.36-35.52-15.36-30.81,0-55.8,30.07-56,67.25h.36c1.38,2.39,7,4.53,15.37,6.17C167.34,81.23,191.5,53.69,221,53.69Z" transform="translate(-5.78 -34.74)"/><path class="cls-34" d="M205.42,34.79v0l-.52,0-.52,0v0c-26.68,1.55-23.73,15-23.73,15,5.1,17.49,5.06,69,5.06,69,9.24,1,17.12,1.72,19.19,1.55,2.07.17,9.95-.21,19.19-1.16,0,0,0-51.89,5.06-69.38C229.15,49.74,232.1,36.34,205.42,34.79Z" transform="translate(-5.78 -34.74)"/><path class="cls-37" d="M205.38,34.79v0l-.48,0-.48,0v0c-24.23,1.55-21.56,15-21.56,15,4.64,17.49,4.61,69,4.61,69,8.39,1,15.55,1.71,17.43,1.55a138.8,138.8,0,0,0,17.43-1.16s0-51.89,4.6-69.38C226.93,49.74,229.61,36.34,205.38,34.79Z" transform="translate(-5.78 -34.74)"/><path class="cls-39" d="M194.35,58.16s-2.68-13.4,21.55-14.94v-.06l.48,0,.48,0v.06a45.49,45.49,0,0,1,9.36,1.46c-1.65-4-6.59-9-20.84-9.89v0l-.48,0-.48,0v0c-24.23,1.55-21.56,15-21.56,15,4.64,17.49,4.61,69,4.61,69,4.32.49,8.31.93,11.43,1.22C198.72,105.15,197.91,71.61,194.35,58.16Z" transform="translate(-5.78 -34.74)"/><g class="cls-40"><path class="cls-41" d="M215,119.21c-1.46-26.59,3.92-59.73,4-60.06v0c1.46-7.41-.13-9.48-.44-9.81l-.19-.06,0,0c-3.65-3.24-11.15-2.87-13.51-1.68h0c1-.53,10.11-4.76,15.37-1.07,1,.58,4,3.25,2,13.29-.17,1.07-5.36,33.4-3.94,59.31Z" transform="translate(-5.78 -34.74)"/></g><path class="cls-31" d="M144.33,342.71a11.86,11.86,0,0,1-7.56,6.83,20.65,20.65,0,0,1-11.66,0,11.86,11.86,0,0,1-7.56-6.83,15,15,0,0,1-1.08-5.92V311.58h-4v-4.95H126.8v4.95h-4.17v25.57a8.27,8.27,0,0,0,.7,3.59,6.23,6.23,0,0,0,1.87,2.39,7.26,7.26,0,0,0,2.66,1.3,12.1,12.1,0,0,0,3.11.39,13,13,0,0,0,3.26-.39,6.7,6.7,0,0,0,2.63-1.3,6,6,0,0,0,1.75-2.39,8.94,8.94,0,0,0,.64-3.59V311.58H135.2v-4.95h14.38v4.95h-4.17v25.21A15,15,0,0,1,144.33,342.71Z" transform="translate(-5.78 -34.74)"/><path class="cls-31" d="M153.21,349.78v-5h3.93V311.58h-3.93v-4.95H163l22.66,31.79V311.58h-4v-4.95h14.15v4.95h-3.93v38.2h-6L163.3,317.51v27.31h4v5Z" transform="translate(-5.78 -34.74)"/><path class="cls-31" d="M204.82,344.7v-33h-4.11v-5.08h18.55a20.54,20.54,0,0,1,8.65,1.69,17.78,17.78,0,0,1,6.16,4.59,19.6,19.6,0,0,1,3.72,6.74,26.5,26.5,0,0,1,1.24,8.13,28.36,28.36,0,0,1-1.24,8.4,20.88,20.88,0,0,1-3.69,7,17.6,17.6,0,0,1-6.16,4.81,20,20,0,0,1-8.68,1.78H200.71V344.7Zm13.78,0a14.15,14.15,0,0,0,6.37-1.33,12.2,12.2,0,0,0,4.45-3.65,16.18,16.18,0,0,0,2.6-5.41,24.76,24.76,0,0,0,.84-6.53,22.58,22.58,0,0,0-.84-6.25,13.92,13.92,0,0,0-2.66-5.11,12.89,12.89,0,0,0-4.57-3.45,15.62,15.62,0,0,0-6.55-1.26H211v33Z" transform="translate(-5.78 -34.74)"/><path class="cls-31" d="M244.65,344.82V311.58H240.6v-4.95h30.64v9.25h-4.9v-4.3H250.81v13.06h10v4.95h-10v15.23h15.53v-4.89h4.9v9.85H240.6v-5Z" transform="translate(-5.78 -34.74)"/><path class="cls-31" d="M290.64,344.82v5H276.25v-5h4V311.58h-4v-4.95h18.19a11.84,11.84,0,0,1,4.9,1,11,11,0,0,1,3.68,2.59,11.4,11.4,0,0,1,2.33,3.81,12.83,12.83,0,0,1,.82,4.59,12.38,12.38,0,0,1-1.12,5.59,10.79,10.79,0,0,1-2.69,3.51,10.31,10.31,0,0,1-3.26,1.87,10.77,10.77,0,0,1-2.84.64l10,14.62h4v5h-7.8L289.67,330.2H286.4v14.62Zm9.09-28.7a6.64,6.64,0,0,0-1.06-2.21,5.25,5.25,0,0,0-1.93-1.6,6.62,6.62,0,0,0-3-.6H286.4v13.53h7.38c2.29,0,3.92-.64,4.86-1.93a7.73,7.73,0,0,0,1.42-4.72A9.31,9.31,0,0,0,299.73,316.12Z" transform="translate(-5.78 -34.74)"/><path class="cls-31" d="M126.36,354.86l1.54.5a6.5,6.5,0,0,0-.5,2.89l.14,2.1-1.62.28c-.12-2.54-.75-4.22-3.62-4.22-3.83,0-5.13,3.83-5.13,7s1.38,7.08,5.08,7.08c2.81,0,3.86-1.87,3.86-4.46h1.71v3.53a8.21,8.21,0,0,1-5.65,2.48c-3,0-6.79-2.29-6.79-8.77,0-6.31,3.81-8.44,6.84-8.44a8.49,8.49,0,0,1,3.78.94Z" transform="translate(-5.78 -34.74)"/><path class="cls-31" d="M144.63,363.46c0,4.2-2,8.61-6.61,8.61s-6.62-4.41-6.62-8.61,2-8.6,6.62-8.6S144.63,359.27,144.63,363.46Zm-1.79,0c0-3.14-1.27-7-4.82-7s-4.83,3.91-4.83,7,1.27,7.06,4.83,7.06S142.84,366.61,142.84,363.46Z" transform="translate(-5.78 -34.74)"/><path class="cls-31" d="M151,355.19l7.63,13.38h.06V356.74h-2.59v-1.55h6v1.55h-1.74v15h-1.77l-7.83-13.54v12h2.54v1.55H147v-1.55h2V356.74h-2v-1.55Z" transform="translate(-5.78 -34.74)"/><path class="cls-31" d="M171.46,354.86a7.13,7.13,0,0,1,3.11.72l.17-1.08,1.65.31-.25,2.75a8.27,8.27,0,0,0,.25,2.43l-1.68.25a7.13,7.13,0,0,0-.39-2.57,3.1,3.1,0,0,0-2.92-1.26c-1.51,0-3.64.71-3.64,2.81,0,4.44,8.91,2,8.91,8.19,0,2.78-2.4,4.66-5.52,4.66a7.57,7.57,0,0,1-3.86-1l-.08,1-1.65-.22.27-2.92a8.09,8.09,0,0,0-.27-2.45l1.65-.25.17,1.32c.25,2,1.35,2.95,3.91,2.95,1.63,0,3.59-.85,3.59-2.95,0-4.9-8.91-2.2-8.91-8.24C166,356.35,168.78,354.86,171.46,354.86Z" transform="translate(-5.78 -34.74)"/><path class="cls-31" d="M194.51,355.19V361H192.8v-2.09c0-1.93-.17-2.18-2.07-2.18h-2.24v13.45h3.62v1.55h-8.94v-1.55h3.62V356.74h-2.24c-1.9,0-2.07.25-2.07,2.18V361h-1.71v-5.82Z" transform="translate(-5.78 -34.74)"/><path class="cls-31" d="M209.83,370.19h2v1.55h-3l-5-7.53h-2.68v6h2.62v1.55h-6.59v-1.55h2.26V356.93l-2.26-.28v-1.46a10.52,10.52,0,0,0,2.54.33c1.41,0,2.84-.33,4.25-.33,2.73,0,5.26,1.24,5.26,4.28a4.45,4.45,0,0,1-3.58,4.46Zm-8.74-7.47,1.44,0c3.5.05,4.85-1.3,4.85-3.09,0-2.1-1.52-2.92-3.45-2.92a26,26,0,0,0-2.84.19Z" transform="translate(-5.78 -34.74)"/><path class="cls-31" d="M227.78,355.19v1.55h-1.85v10.17c0,3.59-1.76,5.16-5.21,5.16s-5.21-1.57-5.21-5.16V356.74h-1.85v-1.55h5.6v1.55h-2v9.92c0,3,1.24,3.86,3.5,3.86s3.5-.88,3.5-3.86v-9.92h-2v-1.55Z" transform="translate(-5.78 -34.74)"/><path class="cls-31" d="M242.14,354.86l1.55.5a6.5,6.5,0,0,0-.5,2.89l.14,2.1-1.63.28c-.11-2.54-.74-4.22-3.61-4.22-3.83,0-5.13,3.83-5.13,7s1.38,7.08,5.08,7.08c2.81,0,3.86-1.87,3.86-4.46h1.71v3.53a8.22,8.22,0,0,1-5.66,2.48c-3,0-6.78-2.29-6.78-8.77,0-6.31,3.81-8.44,6.84-8.44a8.55,8.55,0,0,1,3.78.94Z" transform="translate(-5.78 -34.74)"/><path class="cls-31" d="M260.67,355.19V361H259v-2.09c0-1.93-.16-2.18-2.07-2.18h-2.23v13.45h3.61v1.55h-8.93v-1.55H253V356.74h-2.23c-1.91,0-2.07.25-2.07,2.18V361h-1.71v-5.82Z" transform="translate(-5.78 -34.74)"/><path class="cls-31" d="M275.61,355.19v1.55H271.2v13.45h4.41v1.55H265.08v-1.55h4.41V356.74h-4.41v-1.55Z" transform="translate(-5.78 -34.74)"/><path class="cls-31" d="M293.5,363.46c0,4.2-2,8.61-6.61,8.61s-6.62-4.41-6.62-8.61,2-8.6,6.62-8.6S293.5,359.27,293.5,363.46Zm-1.79,0c0-3.14-1.27-7-4.82-7s-4.83,3.91-4.83,7,1.27,7.06,4.83,7.06S291.71,366.61,291.71,363.46Z" transform="translate(-5.78 -34.74)"/><path class="cls-31" d="M299.82,355.19l7.63,13.38h.06V356.74h-2.59v-1.55h6v1.55h-1.74v15h-1.77l-7.83-13.54v12h2.54v1.55h-6.29v-1.55h2V356.74h-2v-1.55Z" transform="translate(-5.78 -34.74)"/></svg>